<svg width="100" height="100" viewBox="0 0 100 100" fill="none" xmlns="http://www.w3.org/2000/svg">
<rect width="100" height="100" fill="white"/>
<mask id="path-2-inside-1_282_791" fill="white">
<path d="M42.0758 60.6001C38.2766 60.1967 34.6791 58.6442 31.7382 56.1389C28.7974 53.6336 26.6452 50.288 25.5538 46.5253C24.4624 42.7625 24.481 38.7515 25.607 34.9996C26.733 31.2477 28.916 27.9232 31.8799 25.4467C34.8438 22.9702 38.4555 21.4529 42.2582 21.0866C46.0609 20.7203 49.8839 21.5214 53.2437 23.3888C56.6035 25.2561 59.3493 28.1057 61.1337 31.5773C62.9181 35.0489 63.6611 38.9865 63.2687 42.8922L59.0723 42.4466C59.379 39.3942 58.7983 36.3168 57.4037 33.6036C56.0091 30.8904 53.8632 28.6633 51.2374 27.2039C48.6116 25.7446 45.6237 25.1184 42.6518 25.4047C39.6798 25.691 36.8571 26.8769 34.5408 28.8123C32.2244 30.7478 30.5183 33.346 29.6382 36.2782C28.7582 39.2105 28.7437 42.3453 29.5967 45.286C30.4496 48.2267 32.1316 50.8414 34.43 52.7994C36.7285 54.7574 39.54 55.9707 42.5092 56.286L42.0758 60.6001Z"/>
</mask>
<path d="M42.0758 60.6001C38.2766 60.1967 34.6791 58.6442 31.7382 56.1389C28.7974 53.6336 26.6452 50.288 25.5538 46.5253C24.4624 42.7625 24.481 38.7515 25.607 34.9996C26.733 31.2477 28.916 27.9232 31.8799 25.4467C34.8438 22.9702 38.4555 21.4529 42.2582 21.0866C46.0609 20.7203 49.8839 21.5214 53.2437 23.3888C56.6035 25.2561 59.3493 28.1057 61.1337 31.5773C62.9181 35.0489 63.6611 38.9865 63.2687 42.8922L59.0723 42.4466C59.379 39.3942 58.7983 36.3168 57.4037 33.6036C56.0091 30.8904 53.8632 28.6633 51.2374 27.2039C48.6116 25.7446 45.6237 25.1184 42.6518 25.4047C39.6798 25.691 36.8571 26.8769 34.5408 28.8123C32.2244 30.7478 30.5183 33.346 29.6382 36.2782C28.7582 39.2105 28.7437 42.3453 29.5967 45.286C30.4496 48.2267 32.1316 50.8414 34.43 52.7994C36.7285 54.7574 39.54 55.9707 42.5092 56.286L42.0758 60.6001Z" stroke="black" stroke-width="10.8287" mask="url(#path-2-inside-1_282_791)"/>
<mask id="path-3-inside-2_282_791" fill="white">
<path d="M71.0618 47.1924C68.2813 45.1902 64.9793 44.0711 61.5732 43.9768C58.1671 43.8825 54.8101 44.8172 51.9265 46.6626C49.0429 48.508 46.7624 51.1814 45.3732 54.3445C43.9841 57.5076 43.5487 61.0185 44.1223 64.4332C44.6958 67.8479 46.2524 71.013 48.5952 73.5283C50.9381 76.0436 53.962 77.796 57.2845 78.5641C60.607 79.3322 64.0789 79.0813 67.2612 77.8433C70.4435 76.6052 73.1932 74.4356 75.1626 71.6088L71.6583 69.0853C70.1798 71.2075 68.1155 72.8363 65.7265 73.7657C63.3374 74.6952 60.7309 74.8835 58.2366 74.3069C55.7423 73.7303 53.4722 72.4146 51.7133 70.5263C49.9544 68.638 48.7859 66.2619 48.3553 63.6984C47.9247 61.1349 48.2516 58.4991 49.2944 56.1244C50.3373 53.7498 52.0494 51.7428 54.2142 50.3574C56.379 48.972 58.8993 48.2703 61.4563 48.3411C64.0133 48.4119 66.4923 49.252 68.5797 50.7552L71.0618 47.1924Z"/>
</mask>
<path d="M71.0618 47.1924C68.2813 45.1902 64.9793 44.0711 61.5732 43.9768C58.1671 43.8825 54.8101 44.8172 51.9265 46.6626C49.0429 48.508 46.7624 51.1814 45.3732 54.3445C43.9841 57.5076 43.5487 61.0185 44.1223 64.4332C44.6958 67.8479 46.2524 71.013 48.5952 73.5283C50.9381 76.0436 53.962 77.796 57.2845 78.5641C60.607 79.3322 64.0789 79.0813 67.2612 77.8433C70.4435 76.6052 73.1932 74.4356 75.1626 71.6088L71.6583 69.0853C70.1798 71.2075 68.1155 72.8363 65.7265 73.7657C63.3374 74.6952 60.7309 74.8835 58.2366 74.3069C55.7423 73.7303 53.4722 72.4146 51.7133 70.5263C49.9544 68.638 48.7859 66.2619 48.3553 63.6984C47.9247 61.1349 48.2516 58.4991 49.2944 56.1244C50.3373 53.7498 52.0494 51.7428 54.2142 50.3574C56.379 48.972 58.8993 48.2703 61.4563 48.3411C64.0133 48.4119 66.4923 49.252 68.5797 50.7552L71.0618 47.1924Z" stroke="black" stroke-width="10.791" mask="url(#path-3-inside-2_282_791)"/>
<rect x="22" y="53.1608" width="9.13626" height="5.47193" transform="rotate(-27.8515 22 53.1608)" fill="black"/>
<rect x="58.6432" y="34.0189" width="9.13626" height="5.47193" transform="rotate(-27.8515 58.6432 34.0189)" fill="black"/>
</svg>
