<svg width="86" height="86" viewBox="0 0 86 86" fill="none" xmlns="http://www.w3.org/2000/svg">
<rect width="86" height="86" rx="17.2" fill="#284B63"/>
<path d="M42.9999 66.2489C39.7879 66.2489 36.7693 65.639 33.9442 64.4191C31.1191 63.1993 28.6616 61.5453 26.5719 59.457C24.4821 57.3688 22.828 54.9114 21.6098 52.0847C20.3915 49.2581 19.7816 46.2395 19.78 43.0289C19.78 40.1265 20.3412 37.282 21.4635 34.4956C22.5858 31.7092 24.1531 29.2224 26.1655 27.0351C28.1779 24.8477 30.5966 23.0869 33.4217 21.7525C36.2468 20.4182 39.3428 19.751 42.7097 19.751C43.5224 19.751 44.3544 19.7897 45.2058 19.8671C46.0572 19.9445 46.928 20.0799 47.8181 20.2734C47.4698 22.0149 47.5859 23.6597 48.1664 25.2077C48.7469 26.7557 49.6176 28.042 50.7786 29.0668C51.9396 30.0916 53.3235 30.7982 54.9303 31.1868C56.5372 31.5753 58.1912 31.4786 59.8924 30.8965C58.8862 33.1798 59.0317 35.3664 60.329 37.4562C61.6262 39.546 63.5511 40.6296 66.1038 40.707C66.1425 41.1327 66.1719 41.5289 66.192 41.8958C66.2121 42.2627 66.2214 42.6597 66.2199 43.087C66.2199 46.2604 65.61 49.2496 64.3901 52.0545C63.1703 54.8595 61.5163 57.3169 59.428 59.4269C57.3398 61.5368 54.8824 63.2009 52.0557 64.4191C49.2291 65.6374 46.2105 66.2473 42.9999 66.2489ZM39.517 38.385C40.4845 38.385 41.3072 38.0467 41.9852 37.3703C42.6633 36.6938 43.0015 35.871 42.9999 34.902C42.9984 33.9329 42.6602 33.1109 41.9852 32.436C41.3103 31.7611 40.4876 31.4221 39.517 31.419C38.5464 31.4159 37.7244 31.7549 37.051 32.436C36.3776 33.1171 36.0386 33.9391 36.034 34.902C36.0293 35.8648 36.3683 36.6876 37.051 37.3703C37.7337 38.0529 38.5557 38.3912 39.517 38.385ZM34.873 49.9949C35.8405 49.9949 36.6632 49.6567 37.3413 48.9802C38.0193 48.3037 38.3575 47.481 38.356 46.5119C38.3544 45.5429 38.0162 44.7209 37.3413 44.046C36.6663 43.3711 35.8436 43.032 34.873 43.0289C33.9024 43.0258 33.0804 43.3649 32.407 44.046C31.7336 44.7271 31.3946 45.5491 31.39 46.5119C31.3853 47.4748 31.7244 48.2975 32.407 48.9802C33.0897 49.6629 33.9117 50.0011 34.873 49.9949ZM49.9659 52.3169C50.6238 52.3169 51.1757 52.094 51.6215 51.6482C52.0673 51.2024 52.2895 50.6513 52.2879 49.9949C52.2864 49.3386 52.0635 48.7875 51.6192 48.3417C51.1749 47.8958 50.6238 47.6729 49.9659 47.6729C49.308 47.6729 48.7569 47.8958 48.3127 48.3417C47.8684 48.7875 47.6455 49.3386 47.6439 49.9949C47.6424 50.6513 47.8653 51.2031 48.3127 51.6505C48.76 52.0979 49.3111 52.32 49.9659 52.3169ZM42.9999 61.6049C47.7213 61.6049 51.911 59.9795 55.5689 56.7287C59.2268 53.4779 61.2291 49.337 61.5759 44.306C59.6409 43.4546 58.1215 42.2936 57.0178 40.8231C55.9141 39.3525 55.1695 37.7077 54.7841 35.8888C51.8042 35.4631 49.25 34.186 47.1215 32.0575C44.993 29.929 43.6772 27.3748 43.1741 24.395C40.0781 24.3176 37.3598 24.8787 35.0193 26.0784C32.6787 27.2781 30.7236 28.8168 29.1539 30.6945C27.5842 32.5722 26.4039 34.6133 25.6129 36.8176C24.8218 39.022 24.4256 41.0924 24.424 43.0289C24.424 48.176 26.2336 52.5592 29.8528 56.1784C33.472 59.7976 37.8544 61.6064 42.9999 61.6049Z" fill="white"/>
</svg>
